<mxfile host="app.diagrams.net" modified="2022-07-05T13:50:13.240Z" agent="5.0 (Windows NT 10.0; Win64; x64) AppleWebKit/537.36 (KHTML, like Gecko) Chrome/103.0.0.0 Safari/537.36" etag="M_CnBXu9ZDEgdGbJZ_Iw" version="20.0.1" type="github">
  <diagram id="P7AANG9kl-CyDSvlba7x" name="Page-1">
    <mxGraphModel dx="2031" dy="1089" grid="0" gridSize="10" guides="1" tooltips="1" connect="1" arrows="1" fold="1" page="1" pageScale="1" pageWidth="1169" pageHeight="827" math="0" shadow="1">
      <root>
        <mxCell id="0" />
        <mxCell id="1" parent="0" />
        <mxCell id="VaLjocQixbirXkPMcc8a-129" value="S3B" style="rounded=0;whiteSpace=wrap;html=1;fillColor=#dae8fc;strokeColor=#6c8ebf;labelPosition=left;verticalLabelPosition=middle;align=right;verticalAlign=middle;fontSize=30;opacity=50;" vertex="1" parent="1">
          <mxGeometry x="360" y="253.5" width="540" height="156.5" as="geometry" />
        </mxCell>
        <mxCell id="VaLjocQixbirXkPMcc8a-128" value="ATL" style="rounded=0;whiteSpace=wrap;html=1;fillColor=#fff2cc;strokeColor=#d6b656;fontSize=30;labelPosition=left;verticalLabelPosition=middle;align=right;verticalAlign=middle;opacity=50;" vertex="1" parent="1">
          <mxGeometry x="360" y="457.85" width="540" height="152.15" as="geometry" />
        </mxCell>
        <mxCell id="VaLjocQixbirXkPMcc8a-130" value="LV8" style="rounded=0;whiteSpace=wrap;html=1;fillColor=#e1d5e7;strokeColor=#9673a6;fontSize=30;labelPosition=left;verticalLabelPosition=middle;align=right;verticalAlign=middle;opacity=50;" vertex="1" parent="1">
          <mxGeometry x="360" y="657.85" width="540" height="142.15" as="geometry" />
        </mxCell>
        <mxCell id="VaLjocQixbirXkPMcc8a-127" value="PC1" style="rounded=0;whiteSpace=wrap;html=1;fillColor=#d5e8d4;strokeColor=#82b366;labelPosition=left;verticalLabelPosition=middle;align=right;verticalAlign=middle;fontSize=30;opacity=50;" vertex="1" parent="1">
          <mxGeometry x="370" y="70" width="530" height="150" as="geometry" />
        </mxCell>
        <mxCell id="VaLjocQixbirXkPMcc8a-1" value="&lt;font style=&quot;font-size: 15px;&quot;&gt;Splunk&lt;/font&gt;" style="shadow=0;dashed=0;html=1;labelPosition=center;verticalLabelPosition=top;verticalAlign=bottom;align=center;outlineConnect=0;shape=mxgraph.veeam.3d.datastore;gradientColor=none;sketch=0;" vertex="1" parent="1">
          <mxGeometry x="770" y="110.00000000000003" width="70" height="70" as="geometry" />
        </mxCell>
        <mxCell id="VaLjocQixbirXkPMcc8a-66" value="" style="swimlane;fontStyle=0;horizontal=1;collapsible=0;startSize=28;swimlaneLine=0;swimlaneFillColor=none;fillColor=none;rounded=0;whiteSpace=wrap;html=1;absoluteArcSize=1;arcSize=12;strokeColor=#417CB9;fontColor=#417CB9;verticalAlign=top;align=center;spacingLeft=5;dashed=0;strokeWidth=2;" vertex="1" parent="1">
          <mxGeometry x="480" y="80" width="220" height="115.69060773480663" as="geometry" />
        </mxCell>
        <mxCell id="VaLjocQixbirXkPMcc8a-67" value="" style="sketch=0;html=1;dashed=0;whitespace=wrap;fillColor=#2875E2;strokeColor=#ffffff;points=[[0.005,0.63,0],[0.1,0.2,0],[0.9,0.2,0],[0.5,0,0],[0.995,0.63,0],[0.72,0.99,0],[0.5,1,0],[0.28,0.99,0]];shape=mxgraph.kubernetes.icon;prIcon=job;fontSize=12;labelPosition=center;verticalLabelPosition=bottom;align=center;verticalAlign=top;" vertex="1" parent="VaLjocQixbirXkPMcc8a-66">
          <mxGeometry x="178.49" y="39.5" width="31.51" height="20.5" as="geometry" />
        </mxCell>
        <mxCell id="VaLjocQixbirXkPMcc8a-68" style="edgeStyle=orthogonalEdgeStyle;rounded=0;orthogonalLoop=1;jettySize=auto;html=1;shadow=0;fontSize=12;" edge="1" parent="VaLjocQixbirXkPMcc8a-66" source="VaLjocQixbirXkPMcc8a-69" target="VaLjocQixbirXkPMcc8a-72">
          <mxGeometry relative="1" as="geometry">
            <Array as="points">
              <mxPoint x="110" y="40" />
              <mxPoint x="110" y="40" />
            </Array>
          </mxGeometry>
        </mxCell>
        <mxCell id="VaLjocQixbirXkPMcc8a-69" value="" style="sketch=0;html=1;dashed=0;whitespace=wrap;fillColor=#2875E2;strokeColor=#ffffff;points=[[0.005,0.63,0],[0.1,0.2,0],[0.9,0.2,0],[0.5,0,0],[0.995,0.63,0],[0.72,0.99,0],[0.5,1,0],[0.28,0.99,0]];shape=mxgraph.kubernetes.icon;prIcon=job;fontSize=12;labelPosition=center;verticalLabelPosition=bottom;align=center;verticalAlign=top;" vertex="1" parent="VaLjocQixbirXkPMcc8a-66">
          <mxGeometry x="72.64" y="31.08" width="27.36" height="20.5" as="geometry" />
        </mxCell>
        <mxCell id="VaLjocQixbirXkPMcc8a-70" value="" style="sketch=0;html=1;dashed=0;whitespace=wrap;fillColor=#2875E2;strokeColor=#ffffff;points=[[0.005,0.63,0],[0.1,0.2,0],[0.9,0.2,0],[0.5,0,0],[0.995,0.63,0],[0.72,0.99,0],[0.5,1,0],[0.28,0.99,0]];shape=mxgraph.kubernetes.icon;prIcon=ns;fontSize=12;" vertex="1" parent="VaLjocQixbirXkPMcc8a-66">
          <mxGeometry width="20.754716981132074" height="14.585635359116024" as="geometry" />
        </mxCell>
        <mxCell id="VaLjocQixbirXkPMcc8a-71" style="edgeStyle=orthogonalEdgeStyle;rounded=0;orthogonalLoop=1;jettySize=auto;html=1;entryX=0.005;entryY=0.63;entryDx=0;entryDy=0;entryPerimeter=0;shadow=0;fontSize=12;" edge="1" parent="VaLjocQixbirXkPMcc8a-66" source="VaLjocQixbirXkPMcc8a-72" target="VaLjocQixbirXkPMcc8a-67">
          <mxGeometry relative="1" as="geometry" />
        </mxCell>
        <mxCell id="VaLjocQixbirXkPMcc8a-72" value="" style="sketch=0;points=[[0,0,0],[0.25,0,0],[0.5,0,0],[0.75,0,0],[1,0,0],[0,1,0],[0.25,1,0],[0.5,1,0],[0.75,1,0],[1,1,0],[0,0.25,0],[0,0.5,0],[0,0.75,0],[1,0.25,0],[1,0.5,0],[1,0.75,0]];outlineConnect=0;fontColor=#232F3E;gradientColor=#945DF2;gradientDirection=north;fillColor=#5A30B5;strokeColor=#ffffff;dashed=0;verticalLabelPosition=bottom;verticalAlign=top;align=center;html=1;fontSize=12;fontStyle=0;aspect=fixed;shape=mxgraph.aws4.resourceIcon;resIcon=mxgraph.aws4.managed_streaming_for_kafka;" vertex="1" parent="VaLjocQixbirXkPMcc8a-66">
          <mxGeometry x="121.21" y="20" width="40" height="40" as="geometry" />
        </mxCell>
        <mxCell id="VaLjocQixbirXkPMcc8a-73" style="edgeStyle=orthogonalEdgeStyle;rounded=0;orthogonalLoop=1;jettySize=auto;html=1;fontSize=12;shadow=0;" edge="1" parent="VaLjocQixbirXkPMcc8a-66" source="VaLjocQixbirXkPMcc8a-74" target="VaLjocQixbirXkPMcc8a-72">
          <mxGeometry relative="1" as="geometry" />
        </mxCell>
        <mxCell id="VaLjocQixbirXkPMcc8a-74" value="" style="aspect=fixed;perimeter=ellipsePerimeter;html=1;align=center;shadow=0;dashed=0;fontColor=#4277BB;labelBackgroundColor=#ffffff;fontSize=12;spacingTop=0;image;image=img/lib/ibm/analytics/analytics.svg;" vertex="1" parent="VaLjocQixbirXkPMcc8a-66">
          <mxGeometry x="124.94" y="72.93" width="27.07" height="27.07" as="geometry" />
        </mxCell>
        <mxCell id="VaLjocQixbirXkPMcc8a-75" style="edgeStyle=orthogonalEdgeStyle;rounded=0;orthogonalLoop=1;jettySize=auto;html=1;exitX=0.995;exitY=0.63;exitDx=0;exitDy=0;exitPerimeter=0;entryX=0.023;entryY=0.438;entryDx=0;entryDy=0;entryPerimeter=0;fontSize=12;" edge="1" parent="VaLjocQixbirXkPMcc8a-66" source="VaLjocQixbirXkPMcc8a-76" target="VaLjocQixbirXkPMcc8a-69">
          <mxGeometry relative="1" as="geometry">
            <Array as="points">
              <mxPoint x="50" y="40" />
            </Array>
          </mxGeometry>
        </mxCell>
        <mxCell id="VaLjocQixbirXkPMcc8a-76" value="" style="sketch=0;html=1;dashed=0;whitespace=wrap;fillColor=#2875E2;strokeColor=#ffffff;points=[[0.005,0.63,0],[0.1,0.2,0],[0.9,0.2,0],[0.5,0,0],[0.995,0.63,0],[0.72,0.99,0],[0.5,1,0],[0.28,0.99,0]];shape=mxgraph.kubernetes.icon;prIcon=api;fontSize=15;" vertex="1" parent="VaLjocQixbirXkPMcc8a-66">
          <mxGeometry x="20.75" y="29.48" width="30.94" height="21.05" as="geometry" />
        </mxCell>
        <mxCell id="VaLjocQixbirXkPMcc8a-77" value="" style="swimlane;fontStyle=0;horizontal=1;collapsible=0;startSize=28;swimlaneLine=0;swimlaneFillColor=none;fillColor=none;rounded=0;whiteSpace=wrap;html=1;absoluteArcSize=1;arcSize=12;strokeColor=#417CB9;fontColor=#417CB9;verticalAlign=top;align=center;spacingLeft=5;dashed=0;strokeWidth=2;" vertex="1" parent="VaLjocQixbirXkPMcc8a-66">
          <mxGeometry y="85.69060773480663" width="91.32075471698111" height="30" as="geometry" />
        </mxCell>
        <mxCell id="VaLjocQixbirXkPMcc8a-78" value="" style="sketch=0;html=1;dashed=0;whitespace=wrap;fillColor=#2875E2;strokeColor=#ffffff;points=[[0.005,0.63,0],[0.1,0.2,0],[0.9,0.2,0],[0.5,0,0],[0.995,0.63,0],[0.72,0.99,0],[0.5,1,0],[0.28,0.99,0]];shape=mxgraph.kubernetes.icon;prIcon=deploy;fontSize=12;" vertex="1" parent="VaLjocQixbirXkPMcc8a-77">
          <mxGeometry x="53.96226415094339" y="6.0773480662983435" width="20.754716981132074" height="14.585635359116024" as="geometry" />
        </mxCell>
        <mxCell id="VaLjocQixbirXkPMcc8a-79" value="" style="sketch=0;html=1;dashed=0;whitespace=wrap;fillColor=#2875E2;strokeColor=#ffffff;points=[[0.005,0.63,0],[0.1,0.2,0],[0.9,0.2,0],[0.5,0,0],[0.995,0.63,0],[0.72,0.99,0],[0.5,1,0],[0.28,0.99,0]];shape=mxgraph.kubernetes.icon;prIcon=rs;fontSize=12;" vertex="1" parent="VaLjocQixbirXkPMcc8a-77">
          <mxGeometry x="20.754716981132074" y="6.0773480662983435" width="20.754716981132074" height="14.585635359116024" as="geometry" />
        </mxCell>
        <mxCell id="VaLjocQixbirXkPMcc8a-80" value="" style="sketch=0;html=1;dashed=0;whitespace=wrap;fillColor=#2875E2;strokeColor=#ffffff;points=[[0.005,0.63,0],[0.1,0.2,0],[0.9,0.2,0],[0.5,0,0],[0.995,0.63,0],[0.72,0.99,0],[0.5,1,0],[0.28,0.99,0]];shape=mxgraph.kubernetes.icon;prIcon=rs;fontSize=12;" vertex="1" parent="VaLjocQixbirXkPMcc8a-77">
          <mxGeometry x="12.26" y="1.4100000000000001" width="29.25" height="23.92" as="geometry" />
        </mxCell>
        <mxCell id="VaLjocQixbirXkPMcc8a-81" value="" style="sketch=0;html=1;dashed=0;whitespace=wrap;fillColor=#2875E2;strokeColor=#ffffff;points=[[0.005,0.63,0],[0.1,0.2,0],[0.9,0.2,0],[0.5,0,0],[0.995,0.63,0],[0.72,0.99,0],[0.5,1,0],[0.28,0.99,0]];shape=mxgraph.kubernetes.icon;prIcon=deploy;fontSize=12;" vertex="1" parent="VaLjocQixbirXkPMcc8a-77">
          <mxGeometry x="51.32" y="1.4100000000000001" width="26.04" height="23.92" as="geometry" />
        </mxCell>
        <mxCell id="VaLjocQixbirXkPMcc8a-82" value="" style="sketch=0;html=1;dashed=0;whitespace=wrap;fillColor=#2875E2;strokeColor=#ffffff;points=[[0.005,0.63,0],[0.1,0.2,0],[0.9,0.2,0],[0.5,0,0],[0.995,0.63,0],[0.72,0.99,0],[0.5,1,0],[0.28,0.99,0]];shape=mxgraph.kubernetes.icon;prIcon=ing;fontSize=15;" vertex="1" parent="VaLjocQixbirXkPMcc8a-66">
          <mxGeometry x="-10.00433962264151" y="39.00276243093923" width="20.754716981132074" height="14.585635359116024" as="geometry" />
        </mxCell>
        <mxCell id="VaLjocQixbirXkPMcc8a-83" value="" style="sketch=0;html=1;dashed=0;whitespace=wrap;fillColor=#2875E2;strokeColor=#ffffff;points=[[0.005,0.63,0],[0.1,0.2,0],[0.9,0.2,0],[0.5,0,0],[0.995,0.63,0],[0.72,0.99,0],[0.5,1,0],[0.28,0.99,0]];shape=mxgraph.kubernetes.icon;prIcon=api;fontSize=15;" vertex="1" parent="VaLjocQixbirXkPMcc8a-66">
          <mxGeometry x="23.559999999999945" y="35.76999999999998" width="30.94" height="21.05" as="geometry" />
        </mxCell>
        <mxCell id="VaLjocQixbirXkPMcc8a-84" value="" style="sketch=0;html=1;dashed=0;whitespace=wrap;fillColor=#2875E2;strokeColor=#ffffff;points=[[0.005,0.63,0],[0.1,0.2,0],[0.9,0.2,0],[0.5,0,0],[0.995,0.63,0],[0.72,0.99,0],[0.5,1,0],[0.28,0.99,0]];shape=mxgraph.kubernetes.icon;prIcon=api;fontSize=15;" vertex="1" parent="VaLjocQixbirXkPMcc8a-66">
          <mxGeometry x="30.190000000000055" y="43" width="30.94" height="21.05" as="geometry" />
        </mxCell>
        <mxCell id="VaLjocQixbirXkPMcc8a-105" value="" style="swimlane;fontStyle=0;horizontal=1;collapsible=0;startSize=28;swimlaneLine=0;swimlaneFillColor=none;fillColor=none;rounded=0;whiteSpace=wrap;html=1;absoluteArcSize=1;arcSize=12;strokeColor=#417CB9;fontColor=#417CB9;verticalAlign=top;align=center;spacingLeft=5;dashed=0;strokeWidth=2;" vertex="1" parent="1">
          <mxGeometry x="480" y="680" width="220" height="115.69060773480663" as="geometry" />
        </mxCell>
        <mxCell id="VaLjocQixbirXkPMcc8a-106" value="" style="sketch=0;html=1;dashed=0;whitespace=wrap;fillColor=#2875E2;strokeColor=#ffffff;points=[[0.005,0.63,0],[0.1,0.2,0],[0.9,0.2,0],[0.5,0,0],[0.995,0.63,0],[0.72,0.99,0],[0.5,1,0],[0.28,0.99,0]];shape=mxgraph.kubernetes.icon;prIcon=job;fontSize=12;labelPosition=center;verticalLabelPosition=bottom;align=center;verticalAlign=top;" vertex="1" parent="VaLjocQixbirXkPMcc8a-105">
          <mxGeometry x="178.49" y="39.5" width="31.51" height="20.5" as="geometry" />
        </mxCell>
        <mxCell id="VaLjocQixbirXkPMcc8a-107" style="edgeStyle=orthogonalEdgeStyle;rounded=0;orthogonalLoop=1;jettySize=auto;html=1;shadow=0;fontSize=12;" edge="1" parent="VaLjocQixbirXkPMcc8a-105" source="VaLjocQixbirXkPMcc8a-108" target="VaLjocQixbirXkPMcc8a-111">
          <mxGeometry relative="1" as="geometry">
            <Array as="points">
              <mxPoint x="110" y="40" />
              <mxPoint x="110" y="40" />
            </Array>
          </mxGeometry>
        </mxCell>
        <mxCell id="VaLjocQixbirXkPMcc8a-108" value="" style="sketch=0;html=1;dashed=0;whitespace=wrap;fillColor=#2875E2;strokeColor=#ffffff;points=[[0.005,0.63,0],[0.1,0.2,0],[0.9,0.2,0],[0.5,0,0],[0.995,0.63,0],[0.72,0.99,0],[0.5,1,0],[0.28,0.99,0]];shape=mxgraph.kubernetes.icon;prIcon=job;fontSize=12;labelPosition=center;verticalLabelPosition=bottom;align=center;verticalAlign=top;" vertex="1" parent="VaLjocQixbirXkPMcc8a-105">
          <mxGeometry x="72.64" y="31.08" width="27.36" height="20.5" as="geometry" />
        </mxCell>
        <mxCell id="VaLjocQixbirXkPMcc8a-109" value="" style="sketch=0;html=1;dashed=0;whitespace=wrap;fillColor=#2875E2;strokeColor=#ffffff;points=[[0.005,0.63,0],[0.1,0.2,0],[0.9,0.2,0],[0.5,0,0],[0.995,0.63,0],[0.72,0.99,0],[0.5,1,0],[0.28,0.99,0]];shape=mxgraph.kubernetes.icon;prIcon=ns;fontSize=12;" vertex="1" parent="VaLjocQixbirXkPMcc8a-105">
          <mxGeometry width="20.754716981132074" height="14.585635359116024" as="geometry" />
        </mxCell>
        <mxCell id="VaLjocQixbirXkPMcc8a-110" style="edgeStyle=orthogonalEdgeStyle;rounded=0;orthogonalLoop=1;jettySize=auto;html=1;entryX=0.005;entryY=0.63;entryDx=0;entryDy=0;entryPerimeter=0;shadow=0;fontSize=12;" edge="1" parent="VaLjocQixbirXkPMcc8a-105" source="VaLjocQixbirXkPMcc8a-111" target="VaLjocQixbirXkPMcc8a-106">
          <mxGeometry relative="1" as="geometry" />
        </mxCell>
        <mxCell id="VaLjocQixbirXkPMcc8a-111" value="" style="sketch=0;points=[[0,0,0],[0.25,0,0],[0.5,0,0],[0.75,0,0],[1,0,0],[0,1,0],[0.25,1,0],[0.5,1,0],[0.75,1,0],[1,1,0],[0,0.25,0],[0,0.5,0],[0,0.75,0],[1,0.25,0],[1,0.5,0],[1,0.75,0]];outlineConnect=0;fontColor=#232F3E;gradientColor=#945DF2;gradientDirection=north;fillColor=#5A30B5;strokeColor=#ffffff;dashed=0;verticalLabelPosition=bottom;verticalAlign=top;align=center;html=1;fontSize=12;fontStyle=0;aspect=fixed;shape=mxgraph.aws4.resourceIcon;resIcon=mxgraph.aws4.managed_streaming_for_kafka;" vertex="1" parent="VaLjocQixbirXkPMcc8a-105">
          <mxGeometry x="121.21" y="20" width="40" height="40" as="geometry" />
        </mxCell>
        <mxCell id="VaLjocQixbirXkPMcc8a-112" style="edgeStyle=orthogonalEdgeStyle;rounded=0;orthogonalLoop=1;jettySize=auto;html=1;fontSize=12;shadow=0;" edge="1" parent="VaLjocQixbirXkPMcc8a-105" source="VaLjocQixbirXkPMcc8a-113" target="VaLjocQixbirXkPMcc8a-111">
          <mxGeometry relative="1" as="geometry" />
        </mxCell>
        <mxCell id="VaLjocQixbirXkPMcc8a-113" value="" style="aspect=fixed;perimeter=ellipsePerimeter;html=1;align=center;shadow=0;dashed=0;fontColor=#4277BB;labelBackgroundColor=#ffffff;fontSize=12;spacingTop=0;image;image=img/lib/ibm/analytics/analytics.svg;" vertex="1" parent="VaLjocQixbirXkPMcc8a-105">
          <mxGeometry x="124.94" y="72.93" width="27.07" height="27.07" as="geometry" />
        </mxCell>
        <mxCell id="VaLjocQixbirXkPMcc8a-114" style="edgeStyle=orthogonalEdgeStyle;rounded=0;orthogonalLoop=1;jettySize=auto;html=1;exitX=0.995;exitY=0.63;exitDx=0;exitDy=0;exitPerimeter=0;entryX=0.023;entryY=0.438;entryDx=0;entryDy=0;entryPerimeter=0;fontSize=12;" edge="1" parent="VaLjocQixbirXkPMcc8a-105" source="VaLjocQixbirXkPMcc8a-115" target="VaLjocQixbirXkPMcc8a-108">
          <mxGeometry relative="1" as="geometry">
            <Array as="points">
              <mxPoint x="50" y="40" />
            </Array>
          </mxGeometry>
        </mxCell>
        <mxCell id="VaLjocQixbirXkPMcc8a-115" value="" style="sketch=0;html=1;dashed=0;whitespace=wrap;fillColor=#2875E2;strokeColor=#ffffff;points=[[0.005,0.63,0],[0.1,0.2,0],[0.9,0.2,0],[0.5,0,0],[0.995,0.63,0],[0.72,0.99,0],[0.5,1,0],[0.28,0.99,0]];shape=mxgraph.kubernetes.icon;prIcon=api;fontSize=15;" vertex="1" parent="VaLjocQixbirXkPMcc8a-105">
          <mxGeometry x="20.75" y="29.48" width="30.94" height="21.05" as="geometry" />
        </mxCell>
        <mxCell id="VaLjocQixbirXkPMcc8a-116" value="" style="swimlane;fontStyle=0;horizontal=1;collapsible=0;startSize=28;swimlaneLine=0;swimlaneFillColor=none;fillColor=none;rounded=0;whiteSpace=wrap;html=1;absoluteArcSize=1;arcSize=12;strokeColor=#417CB9;fontColor=#417CB9;verticalAlign=top;align=center;spacingLeft=5;dashed=0;strokeWidth=2;" vertex="1" parent="VaLjocQixbirXkPMcc8a-105">
          <mxGeometry y="85.69060773480663" width="91.32075471698111" height="30" as="geometry" />
        </mxCell>
        <mxCell id="VaLjocQixbirXkPMcc8a-117" value="" style="sketch=0;html=1;dashed=0;whitespace=wrap;fillColor=#2875E2;strokeColor=#ffffff;points=[[0.005,0.63,0],[0.1,0.2,0],[0.9,0.2,0],[0.5,0,0],[0.995,0.63,0],[0.72,0.99,0],[0.5,1,0],[0.28,0.99,0]];shape=mxgraph.kubernetes.icon;prIcon=deploy;fontSize=12;" vertex="1" parent="VaLjocQixbirXkPMcc8a-116">
          <mxGeometry x="53.96226415094339" y="6.0773480662983435" width="20.754716981132074" height="14.585635359116024" as="geometry" />
        </mxCell>
        <mxCell id="VaLjocQixbirXkPMcc8a-118" value="" style="sketch=0;html=1;dashed=0;whitespace=wrap;fillColor=#2875E2;strokeColor=#ffffff;points=[[0.005,0.63,0],[0.1,0.2,0],[0.9,0.2,0],[0.5,0,0],[0.995,0.63,0],[0.72,0.99,0],[0.5,1,0],[0.28,0.99,0]];shape=mxgraph.kubernetes.icon;prIcon=rs;fontSize=12;" vertex="1" parent="VaLjocQixbirXkPMcc8a-116">
          <mxGeometry x="20.754716981132074" y="6.0773480662983435" width="20.754716981132074" height="14.585635359116024" as="geometry" />
        </mxCell>
        <mxCell id="VaLjocQixbirXkPMcc8a-119" value="" style="sketch=0;html=1;dashed=0;whitespace=wrap;fillColor=#2875E2;strokeColor=#ffffff;points=[[0.005,0.63,0],[0.1,0.2,0],[0.9,0.2,0],[0.5,0,0],[0.995,0.63,0],[0.72,0.99,0],[0.5,1,0],[0.28,0.99,0]];shape=mxgraph.kubernetes.icon;prIcon=rs;fontSize=12;" vertex="1" parent="VaLjocQixbirXkPMcc8a-116">
          <mxGeometry x="12.26" y="1.4100000000000001" width="29.25" height="23.92" as="geometry" />
        </mxCell>
        <mxCell id="VaLjocQixbirXkPMcc8a-120" value="" style="sketch=0;html=1;dashed=0;whitespace=wrap;fillColor=#2875E2;strokeColor=#ffffff;points=[[0.005,0.63,0],[0.1,0.2,0],[0.9,0.2,0],[0.5,0,0],[0.995,0.63,0],[0.72,0.99,0],[0.5,1,0],[0.28,0.99,0]];shape=mxgraph.kubernetes.icon;prIcon=deploy;fontSize=12;" vertex="1" parent="VaLjocQixbirXkPMcc8a-116">
          <mxGeometry x="51.32" y="1.4100000000000001" width="26.04" height="23.92" as="geometry" />
        </mxCell>
        <mxCell id="VaLjocQixbirXkPMcc8a-121" value="" style="sketch=0;html=1;dashed=0;whitespace=wrap;fillColor=#2875E2;strokeColor=#ffffff;points=[[0.005,0.63,0],[0.1,0.2,0],[0.9,0.2,0],[0.5,0,0],[0.995,0.63,0],[0.72,0.99,0],[0.5,1,0],[0.28,0.99,0]];shape=mxgraph.kubernetes.icon;prIcon=ing;fontSize=15;" vertex="1" parent="VaLjocQixbirXkPMcc8a-105">
          <mxGeometry x="-10.00433962264151" y="39.00276243093923" width="20.754716981132074" height="14.585635359116024" as="geometry" />
        </mxCell>
        <mxCell id="VaLjocQixbirXkPMcc8a-122" value="" style="sketch=0;html=1;dashed=0;whitespace=wrap;fillColor=#2875E2;strokeColor=#ffffff;points=[[0.005,0.63,0],[0.1,0.2,0],[0.9,0.2,0],[0.5,0,0],[0.995,0.63,0],[0.72,0.99,0],[0.5,1,0],[0.28,0.99,0]];shape=mxgraph.kubernetes.icon;prIcon=api;fontSize=15;" vertex="1" parent="VaLjocQixbirXkPMcc8a-105">
          <mxGeometry x="23.559999999999945" y="35.76999999999998" width="30.94" height="21.05" as="geometry" />
        </mxCell>
        <mxCell id="VaLjocQixbirXkPMcc8a-123" value="" style="sketch=0;html=1;dashed=0;whitespace=wrap;fillColor=#2875E2;strokeColor=#ffffff;points=[[0.005,0.63,0],[0.1,0.2,0],[0.9,0.2,0],[0.5,0,0],[0.995,0.63,0],[0.72,0.99,0],[0.5,1,0],[0.28,0.99,0]];shape=mxgraph.kubernetes.icon;prIcon=api;fontSize=15;" vertex="1" parent="VaLjocQixbirXkPMcc8a-105">
          <mxGeometry x="30.190000000000055" y="43" width="30.94" height="21.05" as="geometry" />
        </mxCell>
        <mxCell id="VaLjocQixbirXkPMcc8a-124" value="&lt;font style=&quot;font-size: 15px;&quot;&gt;Splunk&lt;/font&gt;" style="shadow=0;dashed=0;html=1;labelPosition=center;verticalLabelPosition=top;verticalAlign=bottom;align=center;outlineConnect=0;shape=mxgraph.veeam.3d.datastore;gradientColor=none;sketch=0;" vertex="1" parent="1">
          <mxGeometry x="770" y="310" width="70" height="70" as="geometry" />
        </mxCell>
        <mxCell id="VaLjocQixbirXkPMcc8a-125" value="&lt;font style=&quot;font-size: 15px;&quot;&gt;Splunk&lt;/font&gt;" style="shadow=0;dashed=0;html=1;labelPosition=center;verticalLabelPosition=top;verticalAlign=bottom;align=center;outlineConnect=0;shape=mxgraph.veeam.3d.datastore;gradientColor=none;sketch=0;" vertex="1" parent="1">
          <mxGeometry x="770" y="510" width="70" height="70" as="geometry" />
        </mxCell>
        <mxCell id="VaLjocQixbirXkPMcc8a-126" value="&lt;font style=&quot;font-size: 15px;&quot;&gt;Splunk&lt;/font&gt;" style="shadow=0;dashed=0;html=1;labelPosition=center;verticalLabelPosition=top;verticalAlign=bottom;align=center;outlineConnect=0;shape=mxgraph.veeam.3d.datastore;gradientColor=none;sketch=0;" vertex="1" parent="1">
          <mxGeometry x="770" y="710" width="70" height="70" as="geometry" />
        </mxCell>
        <mxCell id="VaLjocQixbirXkPMcc8a-86" value="" style="swimlane;fontStyle=0;horizontal=1;collapsible=0;startSize=28;swimlaneLine=0;swimlaneFillColor=none;fillColor=none;rounded=0;whiteSpace=wrap;html=1;absoluteArcSize=1;arcSize=12;strokeColor=#417CB9;fontColor=#417CB9;verticalAlign=top;align=center;spacingLeft=5;dashed=0;strokeWidth=2;" vertex="1" parent="1">
          <mxGeometry x="480" y="480" width="220" height="115.69060773480663" as="geometry" />
        </mxCell>
        <mxCell id="VaLjocQixbirXkPMcc8a-87" value="" style="sketch=0;html=1;dashed=0;whitespace=wrap;fillColor=#2875E2;strokeColor=#ffffff;points=[[0.005,0.63,0],[0.1,0.2,0],[0.9,0.2,0],[0.5,0,0],[0.995,0.63,0],[0.72,0.99,0],[0.5,1,0],[0.28,0.99,0]];shape=mxgraph.kubernetes.icon;prIcon=job;fontSize=12;labelPosition=center;verticalLabelPosition=bottom;align=center;verticalAlign=top;" vertex="1" parent="VaLjocQixbirXkPMcc8a-86">
          <mxGeometry x="178.49" y="39.5" width="31.51" height="20.5" as="geometry" />
        </mxCell>
        <mxCell id="VaLjocQixbirXkPMcc8a-88" style="edgeStyle=orthogonalEdgeStyle;rounded=0;orthogonalLoop=1;jettySize=auto;html=1;shadow=0;fontSize=12;" edge="1" parent="VaLjocQixbirXkPMcc8a-86" source="VaLjocQixbirXkPMcc8a-89" target="VaLjocQixbirXkPMcc8a-92">
          <mxGeometry relative="1" as="geometry">
            <Array as="points">
              <mxPoint x="110" y="40" />
              <mxPoint x="110" y="40" />
            </Array>
          </mxGeometry>
        </mxCell>
        <mxCell id="VaLjocQixbirXkPMcc8a-89" value="" style="sketch=0;html=1;dashed=0;whitespace=wrap;fillColor=#2875E2;strokeColor=#ffffff;points=[[0.005,0.63,0],[0.1,0.2,0],[0.9,0.2,0],[0.5,0,0],[0.995,0.63,0],[0.72,0.99,0],[0.5,1,0],[0.28,0.99,0]];shape=mxgraph.kubernetes.icon;prIcon=job;fontSize=12;labelPosition=center;verticalLabelPosition=bottom;align=center;verticalAlign=top;" vertex="1" parent="VaLjocQixbirXkPMcc8a-86">
          <mxGeometry x="72.64" y="31.08" width="27.36" height="20.5" as="geometry" />
        </mxCell>
        <mxCell id="VaLjocQixbirXkPMcc8a-90" value="" style="sketch=0;html=1;dashed=0;whitespace=wrap;fillColor=#2875E2;strokeColor=#ffffff;points=[[0.005,0.63,0],[0.1,0.2,0],[0.9,0.2,0],[0.5,0,0],[0.995,0.63,0],[0.72,0.99,0],[0.5,1,0],[0.28,0.99,0]];shape=mxgraph.kubernetes.icon;prIcon=ns;fontSize=12;" vertex="1" parent="VaLjocQixbirXkPMcc8a-86">
          <mxGeometry width="20.754716981132074" height="14.585635359116024" as="geometry" />
        </mxCell>
        <mxCell id="VaLjocQixbirXkPMcc8a-91" style="edgeStyle=orthogonalEdgeStyle;rounded=0;orthogonalLoop=1;jettySize=auto;html=1;entryX=0.005;entryY=0.63;entryDx=0;entryDy=0;entryPerimeter=0;shadow=0;fontSize=12;" edge="1" parent="VaLjocQixbirXkPMcc8a-86" source="VaLjocQixbirXkPMcc8a-92" target="VaLjocQixbirXkPMcc8a-87">
          <mxGeometry relative="1" as="geometry" />
        </mxCell>
        <mxCell id="VaLjocQixbirXkPMcc8a-92" value="" style="sketch=0;points=[[0,0,0],[0.25,0,0],[0.5,0,0],[0.75,0,0],[1,0,0],[0,1,0],[0.25,1,0],[0.5,1,0],[0.75,1,0],[1,1,0],[0,0.25,0],[0,0.5,0],[0,0.75,0],[1,0.25,0],[1,0.5,0],[1,0.75,0]];outlineConnect=0;fontColor=#232F3E;gradientColor=#945DF2;gradientDirection=north;fillColor=#5A30B5;strokeColor=#ffffff;dashed=0;verticalLabelPosition=bottom;verticalAlign=top;align=center;html=1;fontSize=12;fontStyle=0;aspect=fixed;shape=mxgraph.aws4.resourceIcon;resIcon=mxgraph.aws4.managed_streaming_for_kafka;" vertex="1" parent="VaLjocQixbirXkPMcc8a-86">
          <mxGeometry x="121.21" y="20" width="40" height="40" as="geometry" />
        </mxCell>
        <mxCell id="VaLjocQixbirXkPMcc8a-93" style="edgeStyle=orthogonalEdgeStyle;rounded=0;orthogonalLoop=1;jettySize=auto;html=1;fontSize=12;shadow=0;" edge="1" parent="VaLjocQixbirXkPMcc8a-86" source="VaLjocQixbirXkPMcc8a-94" target="VaLjocQixbirXkPMcc8a-92">
          <mxGeometry relative="1" as="geometry" />
        </mxCell>
        <mxCell id="VaLjocQixbirXkPMcc8a-94" value="" style="aspect=fixed;perimeter=ellipsePerimeter;html=1;align=center;shadow=0;dashed=0;fontColor=#4277BB;labelBackgroundColor=#ffffff;fontSize=12;spacingTop=0;image;image=img/lib/ibm/analytics/analytics.svg;" vertex="1" parent="VaLjocQixbirXkPMcc8a-86">
          <mxGeometry x="124.94" y="72.93" width="27.07" height="27.07" as="geometry" />
        </mxCell>
        <mxCell id="VaLjocQixbirXkPMcc8a-95" style="edgeStyle=orthogonalEdgeStyle;rounded=0;orthogonalLoop=1;jettySize=auto;html=1;exitX=0.995;exitY=0.63;exitDx=0;exitDy=0;exitPerimeter=0;entryX=0.023;entryY=0.438;entryDx=0;entryDy=0;entryPerimeter=0;fontSize=12;" edge="1" parent="VaLjocQixbirXkPMcc8a-86" source="VaLjocQixbirXkPMcc8a-96" target="VaLjocQixbirXkPMcc8a-89">
          <mxGeometry relative="1" as="geometry">
            <Array as="points">
              <mxPoint x="50" y="40" />
            </Array>
          </mxGeometry>
        </mxCell>
        <mxCell id="VaLjocQixbirXkPMcc8a-96" value="" style="sketch=0;html=1;dashed=0;whitespace=wrap;fillColor=#2875E2;strokeColor=#ffffff;points=[[0.005,0.63,0],[0.1,0.2,0],[0.9,0.2,0],[0.5,0,0],[0.995,0.63,0],[0.72,0.99,0],[0.5,1,0],[0.28,0.99,0]];shape=mxgraph.kubernetes.icon;prIcon=api;fontSize=15;" vertex="1" parent="VaLjocQixbirXkPMcc8a-86">
          <mxGeometry x="20.75" y="29.48" width="30.94" height="21.05" as="geometry" />
        </mxCell>
        <mxCell id="VaLjocQixbirXkPMcc8a-97" value="" style="swimlane;fontStyle=0;horizontal=1;collapsible=0;startSize=28;swimlaneLine=0;swimlaneFillColor=none;fillColor=none;rounded=0;whiteSpace=wrap;html=1;absoluteArcSize=1;arcSize=12;strokeColor=#417CB9;fontColor=#417CB9;verticalAlign=top;align=center;spacingLeft=5;dashed=0;strokeWidth=2;" vertex="1" parent="VaLjocQixbirXkPMcc8a-86">
          <mxGeometry y="85.69060773480663" width="91.32075471698111" height="30" as="geometry" />
        </mxCell>
        <mxCell id="VaLjocQixbirXkPMcc8a-98" value="" style="sketch=0;html=1;dashed=0;whitespace=wrap;fillColor=#2875E2;strokeColor=#ffffff;points=[[0.005,0.63,0],[0.1,0.2,0],[0.9,0.2,0],[0.5,0,0],[0.995,0.63,0],[0.72,0.99,0],[0.5,1,0],[0.28,0.99,0]];shape=mxgraph.kubernetes.icon;prIcon=deploy;fontSize=12;" vertex="1" parent="VaLjocQixbirXkPMcc8a-97">
          <mxGeometry x="53.96226415094339" y="6.0773480662983435" width="20.754716981132074" height="14.585635359116024" as="geometry" />
        </mxCell>
        <mxCell id="VaLjocQixbirXkPMcc8a-99" value="" style="sketch=0;html=1;dashed=0;whitespace=wrap;fillColor=#2875E2;strokeColor=#ffffff;points=[[0.005,0.63,0],[0.1,0.2,0],[0.9,0.2,0],[0.5,0,0],[0.995,0.63,0],[0.72,0.99,0],[0.5,1,0],[0.28,0.99,0]];shape=mxgraph.kubernetes.icon;prIcon=rs;fontSize=12;" vertex="1" parent="VaLjocQixbirXkPMcc8a-97">
          <mxGeometry x="20.754716981132074" y="6.0773480662983435" width="20.754716981132074" height="14.585635359116024" as="geometry" />
        </mxCell>
        <mxCell id="VaLjocQixbirXkPMcc8a-100" value="" style="sketch=0;html=1;dashed=0;whitespace=wrap;fillColor=#2875E2;strokeColor=#ffffff;points=[[0.005,0.63,0],[0.1,0.2,0],[0.9,0.2,0],[0.5,0,0],[0.995,0.63,0],[0.72,0.99,0],[0.5,1,0],[0.28,0.99,0]];shape=mxgraph.kubernetes.icon;prIcon=rs;fontSize=12;" vertex="1" parent="VaLjocQixbirXkPMcc8a-97">
          <mxGeometry x="12.26" y="1.4100000000000001" width="29.25" height="23.92" as="geometry" />
        </mxCell>
        <mxCell id="VaLjocQixbirXkPMcc8a-101" value="" style="sketch=0;html=1;dashed=0;whitespace=wrap;fillColor=#2875E2;strokeColor=#ffffff;points=[[0.005,0.63,0],[0.1,0.2,0],[0.9,0.2,0],[0.5,0,0],[0.995,0.63,0],[0.72,0.99,0],[0.5,1,0],[0.28,0.99,0]];shape=mxgraph.kubernetes.icon;prIcon=deploy;fontSize=12;" vertex="1" parent="VaLjocQixbirXkPMcc8a-97">
          <mxGeometry x="51.32" y="1.4100000000000001" width="26.04" height="23.92" as="geometry" />
        </mxCell>
        <mxCell id="VaLjocQixbirXkPMcc8a-102" value="" style="sketch=0;html=1;dashed=0;whitespace=wrap;fillColor=#2875E2;strokeColor=#ffffff;points=[[0.005,0.63,0],[0.1,0.2,0],[0.9,0.2,0],[0.5,0,0],[0.995,0.63,0],[0.72,0.99,0],[0.5,1,0],[0.28,0.99,0]];shape=mxgraph.kubernetes.icon;prIcon=ing;fontSize=15;" vertex="1" parent="VaLjocQixbirXkPMcc8a-86">
          <mxGeometry x="-10.00433962264151" y="39.00276243093923" width="20.754716981132074" height="14.585635359116024" as="geometry" />
        </mxCell>
        <mxCell id="VaLjocQixbirXkPMcc8a-103" value="" style="sketch=0;html=1;dashed=0;whitespace=wrap;fillColor=#2875E2;strokeColor=#ffffff;points=[[0.005,0.63,0],[0.1,0.2,0],[0.9,0.2,0],[0.5,0,0],[0.995,0.63,0],[0.72,0.99,0],[0.5,1,0],[0.28,0.99,0]];shape=mxgraph.kubernetes.icon;prIcon=api;fontSize=15;" vertex="1" parent="VaLjocQixbirXkPMcc8a-86">
          <mxGeometry x="23.559999999999945" y="35.76999999999998" width="30.94" height="21.05" as="geometry" />
        </mxCell>
        <mxCell id="VaLjocQixbirXkPMcc8a-104" value="" style="sketch=0;html=1;dashed=0;whitespace=wrap;fillColor=#2875E2;strokeColor=#ffffff;points=[[0.005,0.63,0],[0.1,0.2,0],[0.9,0.2,0],[0.5,0,0],[0.995,0.63,0],[0.72,0.99,0],[0.5,1,0],[0.28,0.99,0]];shape=mxgraph.kubernetes.icon;prIcon=api;fontSize=15;" vertex="1" parent="VaLjocQixbirXkPMcc8a-86">
          <mxGeometry x="30.190000000000055" y="43" width="30.94" height="21.05" as="geometry" />
        </mxCell>
        <mxCell id="VaLjocQixbirXkPMcc8a-32" value="" style="swimlane;fontStyle=0;horizontal=1;collapsible=0;startSize=28;swimlaneLine=0;swimlaneFillColor=none;fillColor=none;rounded=0;whiteSpace=wrap;html=1;absoluteArcSize=1;arcSize=12;strokeColor=#417CB9;fontColor=#417CB9;verticalAlign=top;align=center;spacingLeft=5;dashed=0;strokeWidth=2;" vertex="1" parent="1">
          <mxGeometry x="480" y="280" width="220" height="115.69060773480663" as="geometry" />
        </mxCell>
        <mxCell id="VaLjocQixbirXkPMcc8a-34" value="" style="sketch=0;html=1;dashed=0;whitespace=wrap;fillColor=#2875E2;strokeColor=#ffffff;points=[[0.005,0.63,0],[0.1,0.2,0],[0.9,0.2,0],[0.5,0,0],[0.995,0.63,0],[0.72,0.99,0],[0.5,1,0],[0.28,0.99,0]];shape=mxgraph.kubernetes.icon;prIcon=job;fontSize=12;labelPosition=center;verticalLabelPosition=bottom;align=center;verticalAlign=top;" vertex="1" parent="VaLjocQixbirXkPMcc8a-32">
          <mxGeometry x="178.49" y="39.5" width="31.51" height="20.5" as="geometry" />
        </mxCell>
        <mxCell id="VaLjocQixbirXkPMcc8a-35" style="edgeStyle=orthogonalEdgeStyle;rounded=0;orthogonalLoop=1;jettySize=auto;html=1;shadow=0;fontSize=12;" edge="1" parent="VaLjocQixbirXkPMcc8a-32" source="VaLjocQixbirXkPMcc8a-36" target="VaLjocQixbirXkPMcc8a-39">
          <mxGeometry relative="1" as="geometry">
            <Array as="points">
              <mxPoint x="110" y="40" />
              <mxPoint x="110" y="40" />
            </Array>
          </mxGeometry>
        </mxCell>
        <mxCell id="VaLjocQixbirXkPMcc8a-36" value="" style="sketch=0;html=1;dashed=0;whitespace=wrap;fillColor=#2875E2;strokeColor=#ffffff;points=[[0.005,0.63,0],[0.1,0.2,0],[0.9,0.2,0],[0.5,0,0],[0.995,0.63,0],[0.72,0.99,0],[0.5,1,0],[0.28,0.99,0]];shape=mxgraph.kubernetes.icon;prIcon=job;fontSize=12;labelPosition=center;verticalLabelPosition=bottom;align=center;verticalAlign=top;" vertex="1" parent="VaLjocQixbirXkPMcc8a-32">
          <mxGeometry x="72.64" y="31.08" width="27.36" height="20.5" as="geometry" />
        </mxCell>
        <mxCell id="VaLjocQixbirXkPMcc8a-37" value="" style="sketch=0;html=1;dashed=0;whitespace=wrap;fillColor=#2875E2;strokeColor=#ffffff;points=[[0.005,0.63,0],[0.1,0.2,0],[0.9,0.2,0],[0.5,0,0],[0.995,0.63,0],[0.72,0.99,0],[0.5,1,0],[0.28,0.99,0]];shape=mxgraph.kubernetes.icon;prIcon=ns;fontSize=12;" vertex="1" parent="VaLjocQixbirXkPMcc8a-32">
          <mxGeometry width="20.754716981132074" height="14.585635359116024" as="geometry" />
        </mxCell>
        <mxCell id="VaLjocQixbirXkPMcc8a-38" style="edgeStyle=orthogonalEdgeStyle;rounded=0;orthogonalLoop=1;jettySize=auto;html=1;entryX=0.005;entryY=0.63;entryDx=0;entryDy=0;entryPerimeter=0;shadow=0;fontSize=12;" edge="1" parent="VaLjocQixbirXkPMcc8a-32" source="VaLjocQixbirXkPMcc8a-39" target="VaLjocQixbirXkPMcc8a-34">
          <mxGeometry relative="1" as="geometry" />
        </mxCell>
        <mxCell id="VaLjocQixbirXkPMcc8a-39" value="" style="sketch=0;points=[[0,0,0],[0.25,0,0],[0.5,0,0],[0.75,0,0],[1,0,0],[0,1,0],[0.25,1,0],[0.5,1,0],[0.75,1,0],[1,1,0],[0,0.25,0],[0,0.5,0],[0,0.75,0],[1,0.25,0],[1,0.5,0],[1,0.75,0]];outlineConnect=0;fontColor=#232F3E;gradientColor=#945DF2;gradientDirection=north;fillColor=#5A30B5;strokeColor=#ffffff;dashed=0;verticalLabelPosition=bottom;verticalAlign=top;align=center;html=1;fontSize=12;fontStyle=0;aspect=fixed;shape=mxgraph.aws4.resourceIcon;resIcon=mxgraph.aws4.managed_streaming_for_kafka;" vertex="1" parent="VaLjocQixbirXkPMcc8a-32">
          <mxGeometry x="121.21" y="20" width="40" height="40" as="geometry" />
        </mxCell>
        <mxCell id="VaLjocQixbirXkPMcc8a-40" style="edgeStyle=orthogonalEdgeStyle;rounded=0;orthogonalLoop=1;jettySize=auto;html=1;fontSize=12;shadow=0;" edge="1" parent="VaLjocQixbirXkPMcc8a-32" source="VaLjocQixbirXkPMcc8a-41" target="VaLjocQixbirXkPMcc8a-39">
          <mxGeometry relative="1" as="geometry" />
        </mxCell>
        <mxCell id="VaLjocQixbirXkPMcc8a-41" value="" style="aspect=fixed;perimeter=ellipsePerimeter;html=1;align=center;shadow=0;dashed=0;fontColor=#4277BB;labelBackgroundColor=#ffffff;fontSize=12;spacingTop=0;image;image=img/lib/ibm/analytics/analytics.svg;" vertex="1" parent="VaLjocQixbirXkPMcc8a-32">
          <mxGeometry x="124.94" y="72.93" width="27.07" height="27.07" as="geometry" />
        </mxCell>
        <mxCell id="VaLjocQixbirXkPMcc8a-45" style="edgeStyle=orthogonalEdgeStyle;rounded=0;orthogonalLoop=1;jettySize=auto;html=1;exitX=0.995;exitY=0.63;exitDx=0;exitDy=0;exitPerimeter=0;entryX=0.023;entryY=0.438;entryDx=0;entryDy=0;entryPerimeter=0;fontSize=12;" edge="1" parent="VaLjocQixbirXkPMcc8a-32" source="VaLjocQixbirXkPMcc8a-46" target="VaLjocQixbirXkPMcc8a-36">
          <mxGeometry relative="1" as="geometry">
            <Array as="points">
              <mxPoint x="50" y="40" />
            </Array>
          </mxGeometry>
        </mxCell>
        <mxCell id="VaLjocQixbirXkPMcc8a-46" value="" style="sketch=0;html=1;dashed=0;whitespace=wrap;fillColor=#2875E2;strokeColor=#ffffff;points=[[0.005,0.63,0],[0.1,0.2,0],[0.9,0.2,0],[0.5,0,0],[0.995,0.63,0],[0.72,0.99,0],[0.5,1,0],[0.28,0.99,0]];shape=mxgraph.kubernetes.icon;prIcon=api;fontSize=15;" vertex="1" parent="VaLjocQixbirXkPMcc8a-32">
          <mxGeometry x="20.75" y="29.48" width="30.94" height="21.05" as="geometry" />
        </mxCell>
        <mxCell id="VaLjocQixbirXkPMcc8a-49" value="" style="swimlane;fontStyle=0;horizontal=1;collapsible=0;startSize=28;swimlaneLine=0;swimlaneFillColor=none;fillColor=none;rounded=0;whiteSpace=wrap;html=1;absoluteArcSize=1;arcSize=12;strokeColor=#417CB9;fontColor=#417CB9;verticalAlign=top;align=center;spacingLeft=5;dashed=0;strokeWidth=2;" vertex="1" parent="VaLjocQixbirXkPMcc8a-32">
          <mxGeometry y="85.69060773480663" width="91.32075471698111" height="30" as="geometry" />
        </mxCell>
        <mxCell id="VaLjocQixbirXkPMcc8a-50" value="" style="sketch=0;html=1;dashed=0;whitespace=wrap;fillColor=#2875E2;strokeColor=#ffffff;points=[[0.005,0.63,0],[0.1,0.2,0],[0.9,0.2,0],[0.5,0,0],[0.995,0.63,0],[0.72,0.99,0],[0.5,1,0],[0.28,0.99,0]];shape=mxgraph.kubernetes.icon;prIcon=deploy;fontSize=12;" vertex="1" parent="VaLjocQixbirXkPMcc8a-49">
          <mxGeometry x="53.96226415094339" y="6.0773480662983435" width="20.754716981132074" height="14.585635359116024" as="geometry" />
        </mxCell>
        <mxCell id="VaLjocQixbirXkPMcc8a-51" value="" style="sketch=0;html=1;dashed=0;whitespace=wrap;fillColor=#2875E2;strokeColor=#ffffff;points=[[0.005,0.63,0],[0.1,0.2,0],[0.9,0.2,0],[0.5,0,0],[0.995,0.63,0],[0.72,0.99,0],[0.5,1,0],[0.28,0.99,0]];shape=mxgraph.kubernetes.icon;prIcon=rs;fontSize=12;" vertex="1" parent="VaLjocQixbirXkPMcc8a-49">
          <mxGeometry x="20.754716981132074" y="6.0773480662983435" width="20.754716981132074" height="14.585635359116024" as="geometry" />
        </mxCell>
        <mxCell id="VaLjocQixbirXkPMcc8a-53" value="" style="sketch=0;html=1;dashed=0;whitespace=wrap;fillColor=#2875E2;strokeColor=#ffffff;points=[[0.005,0.63,0],[0.1,0.2,0],[0.9,0.2,0],[0.5,0,0],[0.995,0.63,0],[0.72,0.99,0],[0.5,1,0],[0.28,0.99,0]];shape=mxgraph.kubernetes.icon;prIcon=rs;fontSize=12;" vertex="1" parent="VaLjocQixbirXkPMcc8a-49">
          <mxGeometry x="12.26" y="1.4100000000000001" width="29.25" height="23.92" as="geometry" />
        </mxCell>
        <mxCell id="VaLjocQixbirXkPMcc8a-54" value="" style="sketch=0;html=1;dashed=0;whitespace=wrap;fillColor=#2875E2;strokeColor=#ffffff;points=[[0.005,0.63,0],[0.1,0.2,0],[0.9,0.2,0],[0.5,0,0],[0.995,0.63,0],[0.72,0.99,0],[0.5,1,0],[0.28,0.99,0]];shape=mxgraph.kubernetes.icon;prIcon=deploy;fontSize=12;" vertex="1" parent="VaLjocQixbirXkPMcc8a-49">
          <mxGeometry x="51.32" y="1.4100000000000001" width="26.04" height="23.92" as="geometry" />
        </mxCell>
        <mxCell id="VaLjocQixbirXkPMcc8a-58" value="" style="sketch=0;html=1;dashed=0;whitespace=wrap;fillColor=#2875E2;strokeColor=#ffffff;points=[[0.005,0.63,0],[0.1,0.2,0],[0.9,0.2,0],[0.5,0,0],[0.995,0.63,0],[0.72,0.99,0],[0.5,1,0],[0.28,0.99,0]];shape=mxgraph.kubernetes.icon;prIcon=ing;fontSize=15;" vertex="1" parent="VaLjocQixbirXkPMcc8a-32">
          <mxGeometry x="-10.00433962264151" y="39.00276243093923" width="20.754716981132074" height="14.585635359116024" as="geometry" />
        </mxCell>
        <mxCell id="VaLjocQixbirXkPMcc8a-62" value="" style="sketch=0;html=1;dashed=0;whitespace=wrap;fillColor=#2875E2;strokeColor=#ffffff;points=[[0.005,0.63,0],[0.1,0.2,0],[0.9,0.2,0],[0.5,0,0],[0.995,0.63,0],[0.72,0.99,0],[0.5,1,0],[0.28,0.99,0]];shape=mxgraph.kubernetes.icon;prIcon=api;fontSize=15;" vertex="1" parent="VaLjocQixbirXkPMcc8a-32">
          <mxGeometry x="23.559999999999945" y="35.76999999999998" width="30.94" height="21.05" as="geometry" />
        </mxCell>
        <mxCell id="VaLjocQixbirXkPMcc8a-63" value="" style="sketch=0;html=1;dashed=0;whitespace=wrap;fillColor=#2875E2;strokeColor=#ffffff;points=[[0.005,0.63,0],[0.1,0.2,0],[0.9,0.2,0],[0.5,0,0],[0.995,0.63,0],[0.72,0.99,0],[0.5,1,0],[0.28,0.99,0]];shape=mxgraph.kubernetes.icon;prIcon=api;fontSize=15;" vertex="1" parent="VaLjocQixbirXkPMcc8a-32">
          <mxGeometry x="30.190000000000055" y="43" width="30.94" height="21.05" as="geometry" />
        </mxCell>
        <mxCell id="VaLjocQixbirXkPMcc8a-131" value="" style="rounded=1;whiteSpace=wrap;html=1;fontSize=30;fillColor=none;dashed=1;strokeColor=#9999FF;strokeWidth=3;" vertex="1" parent="1">
          <mxGeometry x="729" y="57" width="166" height="770" as="geometry" />
        </mxCell>
      </root>
    </mxGraphModel>
  </diagram>
</mxfile>
